<svg xmlns="http://www.w3.org/2000/svg" viewBox="-3400 -2000 21200 13000"
     font-family="Poppins, Segoe UI, sans-serif">
<defs>
  <pattern id="parkett" width="1200" height="360" patternUnits="userSpaceOnUse">
    <rect width="1200" height="360" fill="#EAD9BC"/>
    <line x1="0" y1="120" x2="1200" y2="120" stroke="#D9C4A3" stroke-width="16"/>
    <line x1="0" y1="240" x2="1200" y2="240" stroke="#D9C4A3" stroke-width="16"/>
    <line x1="0" y1="360" x2="1200" y2="360" stroke="#D9C4A3" stroke-width="16"/>
    <line x1="300" y1="0" x2="300" y2="120" stroke="#D9C4A3" stroke-width="16"/>
    <line x1="900" y1="120" x2="900" y2="240" stroke="#D9C4A3" stroke-width="16"/>
    <line x1="600" y1="240" x2="600" y2="360" stroke="#D9C4A3" stroke-width="16"/>
  </pattern>
  <pattern id="flis" width="300" height="300" patternUnits="userSpaceOnUse">
    <rect width="300" height="300" fill="#E9EAE7"/>
    <path d="M 300 0 L 0 0 0 300" fill="none" stroke="#D2D6D2" stroke-width="14"/>
  </pattern>
  <pattern id="dekke" width="1600" height="290" patternUnits="userSpaceOnUse">
    <rect width="1600" height="290" fill="#D4C9B8"/>
    <line x1="0" y1="145" x2="1600" y2="145" stroke="#C2B5A0" stroke-width="18"/>
    <line x1="0" y1="290" x2="1600" y2="290" stroke="#C2B5A0" stroke-width="18"/>
    <line x1="500" y1="0" x2="500" y2="145" stroke="#C2B5A0" stroke-width="18"/>
    <line x1="1100" y1="145" x2="1100" y2="290" stroke="#C2B5A0" stroke-width="18"/>
  </pattern>
  <pattern id="betong" width="900" height="900" patternUnits="userSpaceOnUse">
    <rect width="900" height="900" fill="#DDDAD3"/>
    <circle cx="200" cy="260" r="26" fill="#CBC7BD"/>
    <circle cx="640" cy="150" r="20" fill="#CBC7BD"/>
    <circle cx="470" cy="560" r="30" fill="#CBC7BD"/>
    <circle cx="760" cy="740" r="22" fill="#CBC7BD"/>
    <circle cx="130" cy="760" r="18" fill="#CBC7BD"/>
  </pattern>
  <filter id="skygge" x="-8%" y="-8%" width="116%" height="116%">
    <feDropShadow dx="0" dy="90" stdDeviation="140" flood-color="#33302C" flood-opacity="0.22"/>
  </filter>
</defs>
<path d="M 0 0 H 11000 V 1200 H 17000 V 7300 H 11000 V 8500 H 0 Z" fill="#FDFBF7" filter="url(#skygge)"/>
<rect x="-2700" y="0" width="2700" height="8500" fill="url(#dekke)" stroke="none" stroke-width="0" rx="0" opacity="1"/>
<rect x="-2700" y="0" width="2700" height="8500" fill="none" stroke="#6b6257" stroke-width="26" stroke-dasharray="240 140"/>
<rect x="4300" y="-1350" width="2400" height="1350" fill="url(#dekke)" stroke="none" stroke-width="0" rx="0" opacity="1"/>
<rect x="4000" y="8500" width="2000" height="1200" fill="url(#dekke)" stroke="none" stroke-width="0" rx="0" opacity="1"/>
<rect x="0" y="0" width="11000" height="8500" fill="url(#parkett)" stroke="none" stroke-width="0" rx="0" opacity="1"/>
<rect x="11000" y="1200" width="6000" height="6100" fill="url(#betong)" stroke="none" stroke-width="0" rx="0" opacity="1"/>
<rect x="9000" y="4600" width="2000" height="2700" fill="url(#flis)" stroke="none" stroke-width="0" rx="0" opacity="1"/>
<rect x="0" y="0" width="11000" height="250" fill="#33302C" stroke="none" stroke-width="0" rx="0" opacity="1"/>
<rect x="0" y="0" width="250" height="8500" fill="#33302C" stroke="none" stroke-width="0" rx="0" opacity="1"/>
<rect x="0" y="8250" width="11000" height="250" fill="#33302C" stroke="none" stroke-width="0" rx="0" opacity="1"/>
<rect x="10750" y="0" width="250" height="8500" fill="#33302C" stroke="none" stroke-width="0" rx="0" opacity="1"/>
<rect x="11000" y="1200" width="6000" height="250" fill="#33302C" stroke="none" stroke-width="0" rx="0" opacity="1"/>
<rect x="11000" y="7050" width="6000" height="250" fill="#33302C" stroke="none" stroke-width="0" rx="0" opacity="1"/>
<rect x="16750" y="1200" width="250" height="6100" fill="#33302C" stroke="none" stroke-width="0" rx="0" opacity="1"/>
<rect x="0" y="4600" width="4100" height="100" fill="#33302C" stroke="none" stroke-width="0" rx="0" opacity="1"/>
<rect x="4000" y="4600" width="100" height="3900" fill="#33302C" stroke="none" stroke-width="0" rx="0" opacity="1"/>
<rect x="7300" y="4600" width="3700" height="100" fill="#33302C" stroke="none" stroke-width="0" rx="0" opacity="1"/>
<rect x="9000" y="4600" width="100" height="2700" fill="#33302C" stroke="none" stroke-width="0" rx="0" opacity="1"/>
<rect x="9000" y="7300" width="2000" height="100" fill="#33302C" stroke="none" stroke-width="0" rx="0" opacity="1"/>
<rect x="700" y="0" width="1600" height="250" fill="#FDFBF7" stroke="none" stroke-width="0" rx="0" opacity="1"/>
<line x1="700" y1="34" x2="2300" y2="34" stroke="#33302C" stroke-width="28"/>
<line x1="700" y1="216" x2="2300" y2="216" stroke="#33302C" stroke-width="28"/>
<line x1="700" y1="125.0" x2="2300" y2="125.0" stroke="#33302C" stroke-width="20"/>
<line x1="700" y1="0" x2="700" y2="250" stroke="#33302C" stroke-width="28"/>
<line x1="2300" y1="0" x2="2300" y2="250" stroke="#33302C" stroke-width="28"/>
<rect x="8100" y="0" width="1600" height="250" fill="#FDFBF7" stroke="none" stroke-width="0" rx="0" opacity="1"/>
<line x1="8100" y1="34" x2="9700" y2="34" stroke="#33302C" stroke-width="28"/>
<line x1="8100" y1="216" x2="9700" y2="216" stroke="#33302C" stroke-width="28"/>
<line x1="8100" y1="125.0" x2="9700" y2="125.0" stroke="#33302C" stroke-width="20"/>
<line x1="8100" y1="0" x2="8100" y2="250" stroke="#33302C" stroke-width="28"/>
<line x1="9700" y1="0" x2="9700" y2="250" stroke="#33302C" stroke-width="28"/>
<rect x="0" y="1000" width="250" height="1600" fill="#FDFBF7" stroke="none" stroke-width="0" rx="0" opacity="1"/>
<line x1="34" y1="1000" x2="34" y2="2600" stroke="#33302C" stroke-width="28"/>
<line x1="216" y1="1000" x2="216" y2="2600" stroke="#33302C" stroke-width="28"/>
<line x1="125.0" y1="1000" x2="125.0" y2="2600" stroke="#33302C" stroke-width="20"/>
<line x1="0" y1="1000" x2="250" y2="1000" stroke="#33302C" stroke-width="28"/>
<line x1="0" y1="2600" x2="250" y2="2600" stroke="#33302C" stroke-width="28"/>
<rect x="0" y="5300" width="250" height="1300" fill="#FDFBF7" stroke="none" stroke-width="0" rx="0" opacity="1"/>
<line x1="34" y1="5300" x2="34" y2="6600" stroke="#33302C" stroke-width="28"/>
<line x1="216" y1="5300" x2="216" y2="6600" stroke="#33302C" stroke-width="28"/>
<line x1="125.0" y1="5300" x2="125.0" y2="6600" stroke="#33302C" stroke-width="20"/>
<line x1="0" y1="5300" x2="250" y2="5300" stroke="#33302C" stroke-width="28"/>
<line x1="0" y1="6600" x2="250" y2="6600" stroke="#33302C" stroke-width="28"/>
<rect x="1300" y="8250" width="1300" height="250" fill="#FDFBF7" stroke="none" stroke-width="0" rx="0" opacity="1"/>
<line x1="1300" y1="8284" x2="2600" y2="8284" stroke="#33302C" stroke-width="28"/>
<line x1="1300" y1="8466" x2="2600" y2="8466" stroke="#33302C" stroke-width="28"/>
<line x1="1300" y1="8375.0" x2="2600" y2="8375.0" stroke="#33302C" stroke-width="20"/>
<line x1="1300" y1="8250" x2="1300" y2="8500" stroke="#33302C" stroke-width="28"/>
<line x1="2600" y1="8250" x2="2600" y2="8500" stroke="#33302C" stroke-width="28"/>
<rect x="10750" y="300" width="250" height="700" fill="#FDFBF7" stroke="none" stroke-width="0" rx="0" opacity="1"/>
<line x1="10784" y1="300" x2="10784" y2="1000" stroke="#33302C" stroke-width="28"/>
<line x1="10966" y1="300" x2="10966" y2="1000" stroke="#33302C" stroke-width="28"/>
<line x1="10875.0" y1="300" x2="10875.0" y2="1000" stroke="#33302C" stroke-width="20"/>
<line x1="10750" y1="300" x2="11000" y2="300" stroke="#33302C" stroke-width="28"/>
<line x1="10750" y1="1000" x2="11000" y2="1000" stroke="#33302C" stroke-width="28"/>
<rect x="5000" y="0" width="1000" height="250" fill="#FDFBF7" stroke="none" stroke-width="0" rx="0" opacity="1"/>
<path d="M 5000 250 L 5000 1250" stroke="#33302C" stroke-width="30" fill="none"/>
<path d="M 6000 250 A 1000 1000 0 0 1 5000 1250" stroke="#8C8378" stroke-width="16" fill="none" stroke-dasharray="70 70"/>
<rect x="4700" y="8250" width="900" height="250" fill="#FDFBF7" stroke="none" stroke-width="0" rx="0" opacity="1"/>
<path d="M 4700 8250 L 4700 7350" stroke="#33302C" stroke-width="30" fill="none"/>
<path d="M 5600 8250 A 900 900 0 0 0 4700 7350" stroke="#8C8378" stroke-width="16" fill="none" stroke-dasharray="70 70"/>
<rect x="0" y="2900" width="250" height="900" fill="#EAD9BC" stroke="none" stroke-width="0" rx="0" opacity="1"/>
<path d="M 250 2900 L 1150 2900" stroke="#33302C" stroke-width="30" fill="none"/>
<path d="M 250 3800 A 900 900 0 0 0 1150 2900" stroke="#8C8378" stroke-width="16" fill="none" stroke-dasharray="70 70"/>
<rect x="4000" y="5300" width="100" height="890" fill="#EAD9BC" stroke="none" stroke-width="0" rx="0" opacity="1"/>
<path d="M 4000 5300 L 3110 5300" stroke="#33302C" stroke-width="30" fill="none"/>
<path d="M 4000 6190 A 890 890 0 0 1 3110 5300" stroke="#8C8378" stroke-width="16" fill="none" stroke-dasharray="70 70"/>
<rect x="9000" y="5300" width="100" height="800" fill="#E9EAE7" stroke="none" stroke-width="0" rx="0" opacity="1"/>
<path d="M 9100 5300 L 9900 5300" stroke="#33302C" stroke-width="30" fill="none"/>
<path d="M 9100 6100 A 800 800 0 0 0 9900 5300" stroke="#8C8378" stroke-width="16" fill="none" stroke-dasharray="70 70"/>
<rect x="10750" y="7650" width="250" height="800" fill="#DDDAD3" stroke="none" stroke-width="0" rx="0" opacity="1"/>
<path d="M 10750 7650 L 9950 7650" stroke="#33302C" stroke-width="30" fill="none"/>
<path d="M 10750 8450 A 800 800 0 0 1 9950 7650" stroke="#8C8378" stroke-width="16" fill="none" stroke-dasharray="70 70"/>
<rect x="16750" y="2900" width="250" height="2600" fill="#FDFBF7" stroke="none" stroke-width="0" rx="0" opacity="1"/>
<line x1="16790" y1="2900" x2="16790" y2="5500" stroke="#33302C" stroke-width="34"/>
<line x1="16960" y1="2900" x2="16960" y2="5500" stroke="#33302C" stroke-width="34" stroke-dasharray="200 120"/>
<rect x="4800" y="4900" width="1800" height="2500" fill="#F6F2EA" stroke="#8C8378" stroke-width="22" rx="0" opacity="1"/>
<line x1="4800" y1="5150.0" x2="6600" y2="5150.0" stroke="#8C8378" stroke-width="16"/>
<line x1="4800" y1="5400.0" x2="6600" y2="5400.0" stroke="#8C8378" stroke-width="16"/>
<line x1="4800" y1="5650.0" x2="6600" y2="5650.0" stroke="#8C8378" stroke-width="16"/>
<line x1="4800" y1="5900.0" x2="6600" y2="5900.0" stroke="#8C8378" stroke-width="16"/>
<line x1="4800" y1="6150.0" x2="6600" y2="6150.0" stroke="#8C8378" stroke-width="16"/>
<line x1="4800" y1="6400.0" x2="6600" y2="6400.0" stroke="#8C8378" stroke-width="16"/>
<line x1="4800" y1="6650.0" x2="6600" y2="6650.0" stroke="#8C8378" stroke-width="16"/>
<line x1="4800" y1="6900.0" x2="6600" y2="6900.0" stroke="#8C8378" stroke-width="16"/>
<line x1="4800" y1="7150.0" x2="6600" y2="7150.0" stroke="#8C8378" stroke-width="16"/>
<line x1="5700.0" y1="7200" x2="5700.0" y2="5160" stroke="#6b6257" stroke-width="34"/>
<path d="M 5570.0 5360 L 5700.0 5160 L 5830.0 5360" fill="none" stroke="#6b6257" stroke-width="34"/>
<text x="7900" y="5100" font-size="170" fill="#6b6257" font-weight="500" text-anchor="middle" font-family="Poppins, Segoe UI, sans-serif">OPP/NED</text>
<rect x="6800" y="300" width="4000" height="620" fill="#FBF8F2" stroke="#8C8378" stroke-width="22" rx="20" opacity="1"/>
<line x1="6840" y1="610.0" x2="10760" y2="610.0" stroke="#8C8378" stroke-width="14"/>
<rect x="8600" y="320" width="520" height="520" fill="#FBF8F2" stroke="#8C8378" stroke-width="22" rx="30" opacity="1"/>
<circle cx="8756.0" cy="476.0" r="67.60000000000001" fill="none" stroke="#8C8378" stroke-width="18"/>
<circle cx="8964.0" cy="476.0" r="67.60000000000001" fill="none" stroke="#8C8378" stroke-width="18"/>
<circle cx="8756.0" cy="684.0" r="67.60000000000001" fill="none" stroke="#8C8378" stroke-width="18"/>
<circle cx="8964.0" cy="684.0" r="67.60000000000001" fill="none" stroke="#8C8378" stroke-width="18"/>
<circle cx="10250" cy="620" r="170" fill="#F6F3EC" stroke="#8C8378" stroke-width="20"/>
<circle cx="10250" cy="620" r="76" fill="none" stroke="#8C8378" stroke-width="14"/>
<rect x="10400" y="900" width="550" height="1900" fill="#FBF8F2" stroke="#8C8378" stroke-width="22" rx="20" opacity="1"/>
<line x1="10675.0" y1="940" x2="10675.0" y2="2760" stroke="#8C8378" stroke-width="14"/>
<rect x="3300" y="1300" width="2600" height="1150" fill="#F3EAD9" stroke="#8C8378" stroke-width="22" rx="300" opacity="1"/>
<rect x="3550" y="830" width="420" height="420" fill="#FBF8F2" stroke="#8C8378" stroke-width="22" rx="110" opacity="1"/>
<rect x="3550" y="2500" width="420" height="420" fill="#FBF8F2" stroke="#8C8378" stroke-width="22" rx="110" opacity="1"/>
<rect x="4350" y="830" width="420" height="420" fill="#FBF8F2" stroke="#8C8378" stroke-width="22" rx="110" opacity="1"/>
<rect x="4350" y="2500" width="420" height="420" fill="#FBF8F2" stroke="#8C8378" stroke-width="22" rx="110" opacity="1"/>
<rect x="5150" y="830" width="420" height="420" fill="#FBF8F2" stroke="#8C8378" stroke-width="22" rx="110" opacity="1"/>
<rect x="5150" y="2500" width="420" height="420" fill="#FBF8F2" stroke="#8C8378" stroke-width="22" rx="110" opacity="1"/>
<rect x="2830" y="1650" width="420" height="420" fill="#FBF8F2" stroke="#8C8378" stroke-width="22" rx="110" opacity="1"/>
<rect x="5950" y="1650" width="420" height="420" fill="#FBF8F2" stroke="#8C8378" stroke-width="22" rx="110" opacity="1"/>
<rect x="500" y="500" width="2300" height="950" fill="#FBF8F2" stroke="#8C8378" stroke-width="22" rx="90" opacity="1"/>
<rect x="540" y="540" width="2220" height="220" fill="#F3EDE2" stroke="#8C8378" stroke-width="16" rx="90" opacity="1"/>
<rect x="540" y="540" width="220" height="870" fill="#F3EDE2" stroke="#8C8378" stroke-width="16" rx="90" opacity="1"/>
<rect x="2540" y="540" width="220" height="870" fill="#F3EDE2" stroke="#8C8378" stroke-width="16" rx="90" opacity="1"/>
<line x1="1650.0" y1="780" x2="1650.0" y2="1390" stroke="#8C8378" stroke-width="14"/>
<rect x="1100" y="1750" width="1000" height="600" fill="#F3EAD9" stroke="#8C8378" stroke-width="22" rx="150" opacity="1"/>
<rect x="400" y="1600" width="2400" height="1100" fill="#E4D2AE" stroke="#CDB588" stroke-width="22" rx="120" opacity="0.85"/>
<rect x="700" y="3900" width="1800" height="420" fill="#FBF8F2" stroke="#8C8378" stroke-width="22" rx="20" opacity="1"/>
<line x1="740" y1="4110.0" x2="2460" y2="4110.0" stroke="#8C8378" stroke-width="14"/>
<rect x="500" y="5200" width="1800" height="2100" fill="#FBF8F2" stroke="#8C8378" stroke-width="22" rx="60" opacity="1"/>
<line x1="500" y1="5340" x2="2300" y2="5340" stroke="#8C8378" stroke-width="20"/>
<rect x="580" y="5420" width="780.0" height="340" fill="#F3EDE2" stroke="#8C8378" stroke-width="18" rx="70" opacity="1"/>
<rect x="1440.0" y="5420" width="780.0" height="340" fill="#F3EDE2" stroke="#8C8378" stroke-width="18" rx="70" opacity="1"/>
<rect x="560" y="5880" width="1680" height="1340" fill="#F6F1E7" stroke="#8C8378" stroke-width="18" rx="50" opacity="1"/>
<line x1="560" y1="6020" x2="2240" y2="6020" stroke="#8C8378" stroke-width="14"/>
<rect x="150" y="5230" width="420" height="420" fill="#FBF8F2" stroke="#8C8378" stroke-width="22" rx="40" opacity="1"/>
<rect x="2350" y="5230" width="420" height="420" fill="#FBF8F2" stroke="#8C8378" stroke-width="22" rx="40" opacity="1"/>
<rect x="2900" y="5000" width="550" height="2200" fill="#FBF8F2" stroke="#8C8378" stroke-width="22" rx="20" opacity="1"/>
<line x1="3175.0" y1="5060" x2="3175.0" y2="7140" stroke="#8C8378" stroke-width="16" stroke-dasharray="180 90"/>
<line x1="2900" y1="6100.0" x2="3450" y2="6100.0" stroke="#8C8378" stroke-width="16"/>
<rect x="4600" y="7850" width="1100" height="500" fill="#E4D2AE" stroke="#CDB588" stroke-width="22" rx="120" opacity="0.85"/>
<rect x="6400" y="7950" width="800" height="420" fill="#FBF8F2" stroke="#8C8378" stroke-width="22" rx="20" opacity="1"/>
<line x1="6440" y1="8160.0" x2="7160" y2="8160.0" stroke="#8C8378" stroke-width="14"/>
<rect x="9250" y="4850" width="420" height="200" fill="#FBF8F2" stroke="#8C8378" stroke-width="20" rx="40" opacity="1"/>
<ellipse cx="9460" cy="5320" rx="185" ry="255" fill="#FBF8F2" stroke="#8C8378" stroke-width="20"/>
<circle cx="10350" cy="5050" r="160" fill="#F6F3EC" stroke="#8C8378" stroke-width="20"/>
<circle cx="10350" cy="5050" r="72" fill="none" stroke="#8C8378" stroke-width="14"/>
<rect x="10250" y="6550" width="600" height="600" fill="#FBF8F2" stroke="#8C8378" stroke-width="22" rx="30" opacity="1"/>
<circle cx="10550.0" cy="6850.0" r="180.0" fill="none" stroke="#8C8378" stroke-width="18"/>
<text x="14000" y="4200" font-size="340" fill="#33302C" font-weight="600" text-anchor="middle" font-family="Poppins, Segoe UI, sans-serif">Garasje</text>
<text x="14000" y="4560" font-size="250" fill="#6b6257" font-weight="400" text-anchor="middle" font-family="Poppins, Segoe UI, sans-serif">36,6 m²</text>
<text x="14000" y="5000" font-size="210" fill="#6b6257" font-weight="400" text-anchor="middle" font-family="Poppins, Segoe UI, sans-serif">Betonggulv</text>
<text x="-1350" y="4200" font-size="280" fill="#6b6257" font-weight="600" text-anchor="middle" font-family="Poppins, Segoe UI, sans-serif">Terrasse</text>
<text x="-1350" y="4520" font-size="220" fill="#6b6257" font-weight="400" text-anchor="middle" font-family="Poppins, Segoe UI, sans-serif">22,5 m²</text>
<rect x="-2100" y="1200" width="850" height="850" fill="#F3EAD9" stroke="#8C8378" stroke-width="22" rx="425" opacity="1"/>
<rect x="-2300" y="2200" width="420" height="420" fill="#FBF8F2" stroke="#8C8378" stroke-width="22" rx="110" opacity="1"/>
<rect x="-1000" y="1000" width="420" height="420" fill="#FBF8F2" stroke="#8C8378" stroke-width="22" rx="110" opacity="1"/>
<text x="5500" y="-550" font-size="220" fill="#6b6257" font-weight="500" text-anchor="middle" font-family="Poppins, Segoe UI, sans-serif">Inngang</text>
<text x="5000" y="9250" font-size="220" fill="#6b6257" font-weight="500" text-anchor="middle" font-family="Poppins, Segoe UI, sans-serif">Bislag</text>
<text x="3800" y="3600" font-size="320" fill="#33302C" font-weight="600" text-anchor="middle" font-family="Poppins, Segoe UI, sans-serif">Stue/Kjøkken</text>
<text x="2000" y="6900" font-size="320" fill="#33302C" font-weight="600" text-anchor="middle" font-family="Poppins, Segoe UI, sans-serif">Sov</text>
<text x="7800" y="7900" font-size="280" fill="#33302C" font-weight="600" text-anchor="middle" font-family="Poppins, Segoe UI, sans-serif">VF</text>
<text x="7800" y="8220" font-size="210" fill="#6b6257" font-weight="400" text-anchor="middle" font-family="Poppins, Segoe UI, sans-serif">12.2 m²</text>
<text x="10000" y="6200" font-size="240" fill="#33302C" font-weight="600" text-anchor="middle" font-family="Poppins, Segoe UI, sans-serif">WC</text>
<text x="10000" y="6470" font-size="190" fill="#6b6257" font-weight="400" text-anchor="middle" font-family="Poppins, Segoe UI, sans-serif">4,3 m²</text>
<text x="1600" y="-350" font-size="230" fill="#C99C55" font-weight="600" text-anchor="middle" font-family="Poppins, Segoe UI, sans-serif">1. ETASJE · BRA 84 M²</text>
<text x="-3200" y="10500" font-size="380" fill="#33302C" font-weight="600" text-anchor="start" font-family="Poppins, Segoe UI, sans-serif">Edvard — 1. etasje</text>
</svg>
