<svg xmlns="http://www.w3.org/2000/svg" viewBox="-2500 -1700 20300 21200"
     font-family="Poppins, Segoe UI, sans-serif">
<defs>
  <pattern id="parkett" width="1200" height="360" patternUnits="userSpaceOnUse">
    <rect width="1200" height="360" fill="#EAD9BC"/>
    <line x1="0" y1="120" x2="1200" y2="120" stroke="#D9C4A3" stroke-width="16"/>
    <line x1="0" y1="240" x2="1200" y2="240" stroke="#D9C4A3" stroke-width="16"/>
    <line x1="0" y1="360" x2="1200" y2="360" stroke="#D9C4A3" stroke-width="16"/>
    <line x1="300" y1="0" x2="300" y2="120" stroke="#D9C4A3" stroke-width="16"/>
    <line x1="900" y1="120" x2="900" y2="240" stroke="#D9C4A3" stroke-width="16"/>
    <line x1="600" y1="240" x2="600" y2="360" stroke="#D9C4A3" stroke-width="16"/>
  </pattern>
  <pattern id="flis" width="300" height="300" patternUnits="userSpaceOnUse">
    <rect width="300" height="300" fill="#E9EAE7"/>
    <path d="M 300 0 L 0 0 0 300" fill="none" stroke="#D2D6D2" stroke-width="14"/>
  </pattern>
  <pattern id="dekke" width="1600" height="290" patternUnits="userSpaceOnUse">
    <rect width="1600" height="290" fill="#D4C9B8"/>
    <line x1="0" y1="145" x2="1600" y2="145" stroke="#C2B5A0" stroke-width="18"/>
    <line x1="0" y1="290" x2="1600" y2="290" stroke="#C2B5A0" stroke-width="18"/>
    <line x1="500" y1="0" x2="500" y2="145" stroke="#C2B5A0" stroke-width="18"/>
    <line x1="1100" y1="145" x2="1100" y2="290" stroke="#C2B5A0" stroke-width="18"/>
  </pattern>
  <pattern id="betong" width="900" height="900" patternUnits="userSpaceOnUse">
    <rect width="900" height="900" fill="#DDDAD3"/>
    <circle cx="200" cy="260" r="26" fill="#CBC7BD"/>
    <circle cx="640" cy="150" r="20" fill="#CBC7BD"/>
    <circle cx="470" cy="560" r="30" fill="#CBC7BD"/>
    <circle cx="760" cy="740" r="22" fill="#CBC7BD"/>
    <circle cx="130" cy="760" r="18" fill="#CBC7BD"/>
  </pattern>
  <filter id="skygge" x="-8%" y="-8%" width="116%" height="116%">
    <feDropShadow dx="0" dy="90" stdDeviation="140" flood-color="#33302C" flood-opacity="0.22"/>
  </filter>
</defs>
<path d="M 0 0 H 15100 V 14550 H 0 Z" fill="#FDFBF7" filter="url(#skygge)"/>
<path d="M 0 14550 L 7550 14550 L 7550 16450 L 0 15250 Z" fill="url(#dekke)"/>
<path d="M 0 14550 L 0 15250 L 7550 16450" fill="none" stroke="#33302C" stroke-width="70"/>
<text x="5450" y="16000" font-size="205" fill="#6b6257" font-weight="600" text-anchor="middle" font-family="Poppins, Segoe UI, sans-serif">Balkong 9.8 m²</text>
<rect x="0" y="0" width="7550" height="14550" fill="url(#parkett)" stroke="none" stroke-width="0" rx="0" opacity="1"/>
<rect x="4400" y="5150" width="3150" height="3850" fill="url(#flis)" stroke="none" stroke-width="0" rx="0" opacity="1"/>
<rect x="0" y="0" width="4650" height="2550" fill="url(#dekke)" stroke="none" stroke-width="0" rx="0" opacity="1"/>
<text x="3600" y="1500" font-size="200" fill="#6b6257" font-weight="600" text-anchor="middle" font-family="Poppins, Segoe UI, sans-serif">Balkong</text>
<text x="3600" y="1740" font-size="165" fill="#6b6257" font-weight="400" text-anchor="middle" font-family="Poppins, Segoe UI, sans-serif">11.9 m²</text>
<rect x="1500" y="700" width="800" height="800" fill="#F3EAD9" stroke="#8C8378" stroke-width="22" rx="400" opacity="1"/>
<rect x="2650" y="850" width="420" height="420" fill="#FBF8F2" stroke="#8C8378" stroke-width="22" rx="110" opacity="1"/>
<rect x="650" y="1700" width="420" height="420" fill="#FBF8F2" stroke="#8C8378" stroke-width="22" rx="110" opacity="1"/>
<rect x="4650" y="0" width="2900" height="250" fill="#33302C" stroke="none" stroke-width="0" rx="0" opacity="1"/>
<rect x="4650" y="0" width="250" height="2650" fill="#33302C" stroke="none" stroke-width="0" rx="0" opacity="1"/>
<rect x="0" y="2550" width="4900" height="250" fill="#33302C" stroke="none" stroke-width="0" rx="0" opacity="1"/>
<rect x="0" y="0" width="4650" height="250" fill="#33302C" stroke="none" stroke-width="0" rx="0" opacity="1"/>
<rect x="0" y="2550" width="250" height="12000" fill="#33302C" stroke="none" stroke-width="0" rx="0" opacity="1"/>
<rect x="0" y="0" width="250" height="2550" fill="#33302C" stroke="none" stroke-width="0" rx="0" opacity="1"/>
<rect x="0" y="14300" width="7550" height="250" fill="#33302C" stroke="none" stroke-width="0" rx="0" opacity="1"/>
<rect x="4400" y="0" width="100" height="5150" fill="#33302C" stroke="none" stroke-width="0" rx="0" opacity="1"/>
<rect x="2200" y="2550" width="100" height="2550" fill="#33302C" stroke="none" stroke-width="0" rx="0" opacity="1"/>
<rect x="0" y="5100" width="3000" height="100" fill="#33302C" stroke="none" stroke-width="0" rx="0" opacity="1"/>
<rect x="2900" y="5100" width="100" height="2650" fill="#33302C" stroke="none" stroke-width="0" rx="0" opacity="1"/>
<rect x="0" y="7750" width="3000" height="100" fill="#33302C" stroke="none" stroke-width="0" rx="0" opacity="1"/>
<rect x="4400" y="5150" width="3150" height="100" fill="#33302C" stroke="none" stroke-width="0" rx="0" opacity="1"/>
<rect x="4400" y="5150" width="100" height="3850" fill="#33302C" stroke="none" stroke-width="0" rx="0" opacity="1"/>
<rect x="4400" y="9000" width="3150" height="100" fill="#33302C" stroke="none" stroke-width="0" rx="0" opacity="1"/>
<rect x="0" y="10550" width="7550" height="100" fill="#33302C" stroke="none" stroke-width="0" rx="0" opacity="1"/>
<rect x="2900" y="10550" width="100" height="4000" fill="#33302C" stroke="none" stroke-width="0" rx="0" opacity="1"/>
<rect x="3400" y="2550" width="900" height="250" fill="#D4C9B8" stroke="none" stroke-width="0" rx="0" opacity="1"/>
<path d="M 3400 2550 L 3400 1650" stroke="#33302C" stroke-width="30" fill="none"/>
<path d="M 4300 2550 A 900 900 0 0 0 3400 1650" stroke="#8C8378" stroke-width="16" fill="none" stroke-dasharray="70 70"/>
<rect x="4400" y="800" width="100" height="900" fill="#EAD9BC" stroke="none" stroke-width="0" rx="0" opacity="1"/>
<path d="M 4500 1700 L 5400 1700" stroke="#33302C" stroke-width="30" fill="none"/>
<path d="M 4500 800 A 900 900 0 0 1 5400 1700" stroke="#8C8378" stroke-width="16" fill="none" stroke-dasharray="70 70"/>
<rect x="2200" y="3100" width="100" height="800" fill="#EAD9BC" stroke="none" stroke-width="0" rx="0" opacity="1"/>
<path d="M 2200 3100 L 1400 3100" stroke="#33302C" stroke-width="30" fill="none"/>
<path d="M 2200 3900 A 800 800 0 0 1 1400 3100" stroke="#8C8378" stroke-width="16" fill="none" stroke-dasharray="70 70"/>
<rect x="800" y="5100" width="890" height="100" fill="#EAD9BC" stroke="none" stroke-width="0" rx="0" opacity="1"/>
<path d="M 800 5100 L 800 4210" stroke="#33302C" stroke-width="30" fill="none"/>
<path d="M 1690 5100 A 890 890 0 0 0 800 4210" stroke="#8C8378" stroke-width="16" fill="none" stroke-dasharray="70 70"/>
<rect x="4400" y="6100" width="100" height="800" fill="#E9EAE7" stroke="none" stroke-width="0" rx="0" opacity="1"/>
<path d="M 4500 6100 L 5300 6100" stroke="#33302C" stroke-width="30" fill="none"/>
<path d="M 4500 6900 A 800 800 0 0 0 5300 6100" stroke="#8C8378" stroke-width="16" fill="none" stroke-dasharray="70 70"/>
<rect x="1000" y="10550" width="890" height="100" fill="#EAD9BC" stroke="none" stroke-width="0" rx="0" opacity="1"/>
<path d="M 1000 10650 L 1000 11540" stroke="#33302C" stroke-width="30" fill="none"/>
<path d="M 1890 10650 A 890 890 0 0 1 1000 11540" stroke="#8C8378" stroke-width="16" fill="none" stroke-dasharray="70 70"/>
<rect x="4400" y="10550" width="890" height="100" fill="#EAD9BC" stroke="none" stroke-width="0" rx="0" opacity="1"/>
<path d="M 4400 10650 L 4400 11540" stroke="#33302C" stroke-width="30" fill="none"/>
<path d="M 5290 10650 A 890 890 0 0 1 4400 11540" stroke="#8C8378" stroke-width="16" fill="none" stroke-dasharray="70 70"/>
<rect x="4200" y="14300" width="900" height="250" fill="#D4C9B8" stroke="none" stroke-width="0" rx="0" opacity="1"/>
<path d="M 4200 14550 L 4200 15450" stroke="#33302C" stroke-width="30" fill="none"/>
<path d="M 5100 14550 A 900 900 0 0 1 4200 15450" stroke="#8C8378" stroke-width="16" fill="none" stroke-dasharray="70 70"/>
<rect x="-1100" y="7850" width="1350" height="2900" fill="url(#parkett)" stroke="none" stroke-width="0" rx="0" opacity="1"/>
<rect x="-1100" y="7850" width="1100" height="250" fill="#33302C" stroke="none" stroke-width="0" rx="0" opacity="1"/>
<rect x="-1100" y="10500" width="1100" height="250" fill="#33302C" stroke="none" stroke-width="0" rx="0" opacity="1"/>
<rect x="-1100" y="7850" width="250" height="2900" fill="#33302C" stroke="none" stroke-width="0" rx="0" opacity="1"/>
<rect x="-950" y="8200" width="800" height="2200" fill="#F6F2EA" stroke="#8C8378" stroke-width="22" rx="0" opacity="1"/>
<line x1="-950" y1="8444.444444444445" x2="-150" y2="8444.444444444445" stroke="#8C8378" stroke-width="16"/>
<line x1="-950" y1="8688.888888888889" x2="-150" y2="8688.888888888889" stroke="#8C8378" stroke-width="16"/>
<line x1="-950" y1="8933.333333333334" x2="-150" y2="8933.333333333334" stroke="#8C8378" stroke-width="16"/>
<line x1="-950" y1="9177.777777777777" x2="-150" y2="9177.777777777777" stroke="#8C8378" stroke-width="16"/>
<line x1="-950" y1="9422.222222222223" x2="-150" y2="9422.222222222223" stroke="#8C8378" stroke-width="16"/>
<line x1="-950" y1="9666.666666666666" x2="-150" y2="9666.666666666666" stroke="#8C8378" stroke-width="16"/>
<line x1="-950" y1="9911.111111111111" x2="-150" y2="9911.111111111111" stroke="#8C8378" stroke-width="16"/>
<line x1="-950" y1="10155.555555555555" x2="-150" y2="10155.555555555555" stroke="#8C8378" stroke-width="16"/>
<line x1="-550.0" y1="8400" x2="-550.0" y2="10140" stroke="#6b6257" stroke-width="34"/>
<path d="M -680.0 9940 L -550.0 10140 L -420.0 9940" fill="none" stroke="#6b6257" stroke-width="34"/>
<text x="-600" y="7600" font-size="170" fill="#6b6257" font-weight="500" text-anchor="middle" font-family="Poppins, Segoe UI, sans-serif">NED</text>
<rect x="0" y="8650" width="250" height="1400" fill="url(#parkett)" stroke="none" stroke-width="0" rx="0" opacity="1"/>
<rect x="0" y="3100" width="250" height="1300" fill="#FDFBF7" stroke="none" stroke-width="0" rx="0" opacity="1"/>
<line x1="34" y1="3100" x2="34" y2="4400" stroke="#33302C" stroke-width="28"/>
<line x1="216" y1="3100" x2="216" y2="4400" stroke="#33302C" stroke-width="28"/>
<line x1="125.0" y1="3100" x2="125.0" y2="4400" stroke="#33302C" stroke-width="20"/>
<line x1="0" y1="3100" x2="250" y2="3100" stroke="#33302C" stroke-width="28"/>
<line x1="0" y1="4400" x2="250" y2="4400" stroke="#33302C" stroke-width="28"/>
<rect x="0" y="6200" width="250" height="1200" fill="#FDFBF7" stroke="none" stroke-width="0" rx="0" opacity="1"/>
<line x1="34" y1="6200" x2="34" y2="7400" stroke="#33302C" stroke-width="28"/>
<line x1="216" y1="6200" x2="216" y2="7400" stroke="#33302C" stroke-width="28"/>
<line x1="125.0" y1="6200" x2="125.0" y2="7400" stroke="#33302C" stroke-width="20"/>
<line x1="0" y1="6200" x2="250" y2="6200" stroke="#33302C" stroke-width="28"/>
<line x1="0" y1="7400" x2="250" y2="7400" stroke="#33302C" stroke-width="28"/>
<rect x="0" y="11900" width="250" height="1400" fill="#FDFBF7" stroke="none" stroke-width="0" rx="0" opacity="1"/>
<line x1="34" y1="11900" x2="34" y2="13300" stroke="#33302C" stroke-width="28"/>
<line x1="216" y1="11900" x2="216" y2="13300" stroke="#33302C" stroke-width="28"/>
<line x1="125.0" y1="11900" x2="125.0" y2="13300" stroke="#33302C" stroke-width="20"/>
<line x1="0" y1="11900" x2="250" y2="11900" stroke="#33302C" stroke-width="28"/>
<line x1="0" y1="13300" x2="250" y2="13300" stroke="#33302C" stroke-width="28"/>
<rect x="1000" y="14300" width="1500" height="250" fill="#FDFBF7" stroke="none" stroke-width="0" rx="0" opacity="1"/>
<line x1="1000" y1="14334" x2="2500" y2="14334" stroke="#33302C" stroke-width="28"/>
<line x1="1000" y1="14516" x2="2500" y2="14516" stroke="#33302C" stroke-width="28"/>
<line x1="1000" y1="14425.0" x2="2500" y2="14425.0" stroke="#33302C" stroke-width="20"/>
<line x1="1000" y1="14300" x2="1000" y2="14550" stroke="#33302C" stroke-width="28"/>
<line x1="2500" y1="14300" x2="2500" y2="14550" stroke="#33302C" stroke-width="28"/>
<rect x="6000" y="14300" width="1200" height="250" fill="#FDFBF7" stroke="none" stroke-width="0" rx="0" opacity="1"/>
<line x1="6000" y1="14334" x2="7200" y2="14334" stroke="#33302C" stroke-width="28"/>
<line x1="6000" y1="14516" x2="7200" y2="14516" stroke="#33302C" stroke-width="28"/>
<line x1="6000" y1="14425.0" x2="7200" y2="14425.0" stroke="#33302C" stroke-width="20"/>
<line x1="6000" y1="14300" x2="6000" y2="14550" stroke="#33302C" stroke-width="28"/>
<line x1="7200" y1="14300" x2="7200" y2="14550" stroke="#33302C" stroke-width="28"/>
<rect x="5300" y="700" width="1800" height="2100" fill="#FBF8F2" stroke="#8C8378" stroke-width="22" rx="60" opacity="1"/>
<line x1="5300" y1="840" x2="7100" y2="840" stroke="#8C8378" stroke-width="20"/>
<rect x="5380" y="920" width="780.0" height="340" fill="#F3EDE2" stroke="#8C8378" stroke-width="18" rx="70" opacity="1"/>
<rect x="6240.0" y="920" width="780.0" height="340" fill="#F3EDE2" stroke="#8C8378" stroke-width="18" rx="70" opacity="1"/>
<rect x="5360" y="1380" width="1680" height="1340" fill="#F6F1E7" stroke="#8C8378" stroke-width="18" rx="50" opacity="1"/>
<line x1="5360" y1="1520" x2="7040" y2="1520" stroke="#8C8378" stroke-width="14"/>
<rect x="4750" y="730" width="420" height="420" fill="#FBF8F2" stroke="#8C8378" stroke-width="22" rx="40" opacity="1"/>
<rect x="7200" y="730" width="420" height="420" fill="#FBF8F2" stroke="#8C8378" stroke-width="22" rx="40" opacity="1"/>
<rect x="300" y="2900" width="550" height="1800" fill="#FBF8F2" stroke="#8C8378" stroke-width="22" rx="20" opacity="1"/>
<line x1="575.0" y1="2960" x2="575.0" y2="4640" stroke="#8C8378" stroke-width="16" stroke-dasharray="180 90"/>
<line x1="300" y1="3800.0" x2="850" y2="3800.0" stroke="#8C8378" stroke-width="16"/>
<rect x="1350" y="2900" width="700" height="550" fill="#FBF8F2" stroke="#8C8378" stroke-width="22" rx="20" opacity="1"/>
<line x1="1410" y1="3175.0" x2="1990" y2="3175.0" stroke="#8C8378" stroke-width="16" stroke-dasharray="180 90"/>
<line x1="1700.0" y1="2900" x2="1700.0" y2="3450" stroke="#8C8378" stroke-width="16"/>
<rect x="300" y="5600" width="1500" height="650" fill="#FBF8F2" stroke="#8C8378" stroke-width="22" rx="40" opacity="1"/>
<rect x="900" y="6500" width="420" height="420" fill="#FBF8F2" stroke="#8C8378" stroke-width="22" rx="110" opacity="1"/>
<rect x="4700" y="5450" width="1700" height="750" fill="#FBF8F2" stroke="#8C8378" stroke-width="22" rx="60" opacity="1"/>
<rect x="4790" y="5540" width="1520" height="570" fill="#F1EFE9" stroke="#8C8378" stroke-width="16" rx="200" opacity="1"/>
<circle cx="5300" cy="7200" r="160" fill="#F6F3EC" stroke="#8C8378" stroke-width="20"/>
<circle cx="5300" cy="7200" r="72" fill="none" stroke="#8C8378" stroke-width="14"/>
<circle cx="6200" cy="7200" r="160" fill="#F6F3EC" stroke="#8C8378" stroke-width="20"/>
<circle cx="6200" cy="7200" r="72" fill="none" stroke="#8C8378" stroke-width="14"/>
<rect x="6900" y="8630" width="420" height="200" fill="#FBF8F2" stroke="#8C8378" stroke-width="20" rx="40" opacity="1"/>
<ellipse cx="7110" cy="8360" rx="185" ry="255" fill="#FBF8F2" stroke="#8C8378" stroke-width="20"/>
<rect x="3100" y="8900" width="2100" height="1400" fill="#E4D2AE" stroke="#CDB588" stroke-width="22" rx="120" opacity="0.85"/>
<rect x="400" y="11300" width="1600" height="2000" fill="#FBF8F2" stroke="#8C8378" stroke-width="22" rx="60" opacity="1"/>
<line x1="400" y1="11440" x2="2000" y2="11440" stroke="#8C8378" stroke-width="20"/>
<rect x="480" y="11520" width="680.0" height="340" fill="#F3EDE2" stroke="#8C8378" stroke-width="18" rx="70" opacity="1"/>
<rect x="1240.0" y="11520" width="680.0" height="340" fill="#F3EDE2" stroke="#8C8378" stroke-width="18" rx="70" opacity="1"/>
<rect x="460" y="11980" width="1480" height="1240" fill="#F6F1E7" stroke="#8C8378" stroke-width="18" rx="50" opacity="1"/>
<line x1="460" y1="12120" x2="1940" y2="12120" stroke="#8C8378" stroke-width="14"/>
<rect x="2200" y="11300" width="550" height="1500" fill="#FBF8F2" stroke="#8C8378" stroke-width="22" rx="20" opacity="1"/>
<line x1="2475.0" y1="11360" x2="2475.0" y2="12740" stroke="#8C8378" stroke-width="16" stroke-dasharray="180 90"/>
<line x1="2200" y1="12050.0" x2="2750" y2="12050.0" stroke="#8C8378" stroke-width="16"/>
<rect x="4300" y="11400" width="1800" height="2100" fill="#FBF8F2" stroke="#8C8378" stroke-width="22" rx="60" opacity="1"/>
<line x1="4300" y1="11540" x2="6100" y2="11540" stroke="#8C8378" stroke-width="20"/>
<rect x="4380" y="11620" width="780.0" height="340" fill="#F3EDE2" stroke="#8C8378" stroke-width="18" rx="70" opacity="1"/>
<rect x="5240.0" y="11620" width="780.0" height="340" fill="#F3EDE2" stroke="#8C8378" stroke-width="18" rx="70" opacity="1"/>
<rect x="4360" y="12080" width="1680" height="1340" fill="#F6F1E7" stroke="#8C8378" stroke-width="18" rx="50" opacity="1"/>
<line x1="4360" y1="12220" x2="6040" y2="12220" stroke="#8C8378" stroke-width="14"/>
<rect x="6350" y="11430" width="420" height="420" fill="#FBF8F2" stroke="#8C8378" stroke-width="22" rx="40" opacity="1"/>
<text x="6000" y="3300" font-size="220" fill="#33302C" font-weight="600" text-anchor="middle" font-family="Poppins, Segoe UI, sans-serif">Master soverom</text>
<text x="6000" y="3560" font-size="175" fill="#6b6257" font-weight="400" text-anchor="middle" font-family="Poppins, Segoe UI, sans-serif">16.2 m²</text>
<text x="1150" y="3900" font-size="180" fill="#33302C" font-weight="600" text-anchor="middle" font-family="Poppins, Segoe UI, sans-serif">Walk in closet</text>
<text x="1150" y="4130" font-size="152" fill="#6b6257" font-weight="400" text-anchor="middle" font-family="Poppins, Segoe UI, sans-serif">5.6 m²</text>
<text x="1550" y="7250" font-size="190" fill="#33302C" font-weight="600" text-anchor="middle" font-family="Poppins, Segoe UI, sans-serif">Kontor/Sov</text>
<text x="1550" y="7490" font-size="158" fill="#6b6257" font-weight="400" text-anchor="middle" font-family="Poppins, Segoe UI, sans-serif">7,6 m²</text>
<text x="5950" y="8650" font-size="230" fill="#33302C" font-weight="600" text-anchor="middle" font-family="Poppins, Segoe UI, sans-serif">Bad</text>
<text x="5950" y="8910" font-size="182" fill="#6b6257" font-weight="400" text-anchor="middle" font-family="Poppins, Segoe UI, sans-serif">12,2 m²</text>
<text x="3350" y="10150" font-size="210" fill="#33302C" font-weight="600" text-anchor="middle" font-family="Poppins, Segoe UI, sans-serif">Gang</text>
<text x="3350" y="10390" font-size="172" fill="#6b6257" font-weight="400" text-anchor="middle" font-family="Poppins, Segoe UI, sans-serif">15.4 m²</text>
<text x="1450" y="13400" font-size="230" fill="#33302C" font-weight="600" text-anchor="middle" font-family="Poppins, Segoe UI, sans-serif">Soverom</text>
<text x="1450" y="13670" font-size="185" fill="#6b6257" font-weight="400" text-anchor="middle" font-family="Poppins, Segoe UI, sans-serif">11.6 m²</text>
<text x="5300" y="13400" font-size="230" fill="#33302C" font-weight="600" text-anchor="middle" font-family="Poppins, Segoe UI, sans-serif">Soverom</text>
<text x="5300" y="13670" font-size="185" fill="#6b6257" font-weight="400" text-anchor="middle" font-family="Poppins, Segoe UI, sans-serif">13.1 m²</text>
<path d="M 15100 14550 L 7550 14550 L 7550 16450 L 15100 14750 Z" fill="url(#dekke)"/>
<path d="M 15100 14550 L 15100 14750 L 7550 16450" fill="none" stroke="#33302C" stroke-width="70"/>
<text x="9650" y="16000" font-size="205" fill="#6b6257" font-weight="600" text-anchor="middle" font-family="Poppins, Segoe UI, sans-serif">Balkong 7.8 m²</text>
<rect x="7550" y="0" width="7550" height="14550" fill="url(#parkett)" stroke="none" stroke-width="0" rx="0" opacity="1"/>
<rect x="7550" y="5150" width="3150" height="3850" fill="url(#flis)" stroke="none" stroke-width="0" rx="0" opacity="1"/>
<rect x="10450" y="0" width="4650" height="2550" fill="url(#dekke)" stroke="none" stroke-width="0" rx="0" opacity="1"/>
<text x="11500" y="1500" font-size="200" fill="#6b6257" font-weight="600" text-anchor="middle" font-family="Poppins, Segoe UI, sans-serif">Balkong</text>
<text x="11500" y="1740" font-size="165" fill="#6b6257" font-weight="400" text-anchor="middle" font-family="Poppins, Segoe UI, sans-serif">11.8 m²</text>
<rect x="12800" y="700" width="800" height="800" fill="#F3EAD9" stroke="#8C8378" stroke-width="22" rx="400" opacity="1"/>
<rect x="12050" y="850" width="420" height="420" fill="#FBF8F2" stroke="#8C8378" stroke-width="22" rx="110" opacity="1"/>
<rect x="14050" y="1700" width="420" height="420" fill="#FBF8F2" stroke="#8C8378" stroke-width="22" rx="110" opacity="1"/>
<rect x="7550" y="0" width="2900" height="250" fill="#33302C" stroke="none" stroke-width="0" rx="0" opacity="1"/>
<rect x="10200" y="0" width="250" height="2650" fill="#33302C" stroke="none" stroke-width="0" rx="0" opacity="1"/>
<rect x="10200" y="2550" width="4900" height="250" fill="#33302C" stroke="none" stroke-width="0" rx="0" opacity="1"/>
<rect x="10450" y="0" width="4650" height="250" fill="#33302C" stroke="none" stroke-width="0" rx="0" opacity="1"/>
<rect x="14850" y="2550" width="250" height="12000" fill="#33302C" stroke="none" stroke-width="0" rx="0" opacity="1"/>
<rect x="14850" y="0" width="250" height="2550" fill="#33302C" stroke="none" stroke-width="0" rx="0" opacity="1"/>
<rect x="7550" y="14300" width="7550" height="250" fill="#33302C" stroke="none" stroke-width="0" rx="0" opacity="1"/>
<rect x="10600" y="0" width="100" height="5150" fill="#33302C" stroke="none" stroke-width="0" rx="0" opacity="1"/>
<rect x="12800" y="2550" width="100" height="2550" fill="#33302C" stroke="none" stroke-width="0" rx="0" opacity="1"/>
<rect x="12100" y="5100" width="3000" height="100" fill="#33302C" stroke="none" stroke-width="0" rx="0" opacity="1"/>
<rect x="12100" y="5100" width="100" height="2650" fill="#33302C" stroke="none" stroke-width="0" rx="0" opacity="1"/>
<rect x="12100" y="7750" width="3000" height="100" fill="#33302C" stroke="none" stroke-width="0" rx="0" opacity="1"/>
<rect x="7550" y="5150" width="3150" height="100" fill="#33302C" stroke="none" stroke-width="0" rx="0" opacity="1"/>
<rect x="10600" y="5150" width="100" height="3850" fill="#33302C" stroke="none" stroke-width="0" rx="0" opacity="1"/>
<rect x="7550" y="9000" width="3150" height="100" fill="#33302C" stroke="none" stroke-width="0" rx="0" opacity="1"/>
<rect x="7550" y="10550" width="7550" height="100" fill="#33302C" stroke="none" stroke-width="0" rx="0" opacity="1"/>
<rect x="12100" y="10550" width="100" height="4000" fill="#33302C" stroke="none" stroke-width="0" rx="0" opacity="1"/>
<rect x="10800" y="2550" width="900" height="250" fill="#D4C9B8" stroke="none" stroke-width="0" rx="0" opacity="1"/>
<path d="M 11700 2550 L 11700 1650" stroke="#33302C" stroke-width="30" fill="none"/>
<path d="M 10800 2550 A 900 900 0 0 1 11700 1650" stroke="#8C8378" stroke-width="16" fill="none" stroke-dasharray="70 70"/>
<rect x="10600" y="800" width="100" height="900" fill="#EAD9BC" stroke="none" stroke-width="0" rx="0" opacity="1"/>
<path d="M 10600 1700 L 9700 1700" stroke="#33302C" stroke-width="30" fill="none"/>
<path d="M 10600 800 A 900 900 0 0 0 9700 1700" stroke="#8C8378" stroke-width="16" fill="none" stroke-dasharray="70 70"/>
<rect x="12800" y="3100" width="100" height="800" fill="#EAD9BC" stroke="none" stroke-width="0" rx="0" opacity="1"/>
<path d="M 12900 3100 L 13700 3100" stroke="#33302C" stroke-width="30" fill="none"/>
<path d="M 12900 3900 A 800 800 0 0 0 13700 3100" stroke="#8C8378" stroke-width="16" fill="none" stroke-dasharray="70 70"/>
<rect x="13410" y="5100" width="890" height="100" fill="#EAD9BC" stroke="none" stroke-width="0" rx="0" opacity="1"/>
<path d="M 14300 5100 L 14300 4210" stroke="#33302C" stroke-width="30" fill="none"/>
<path d="M 13410 5100 A 890 890 0 0 1 14300 4210" stroke="#8C8378" stroke-width="16" fill="none" stroke-dasharray="70 70"/>
<rect x="10600" y="6100" width="100" height="800" fill="#E9EAE7" stroke="none" stroke-width="0" rx="0" opacity="1"/>
<path d="M 10600 6100 L 9800 6100" stroke="#33302C" stroke-width="30" fill="none"/>
<path d="M 10600 6900 A 800 800 0 0 1 9800 6100" stroke="#8C8378" stroke-width="16" fill="none" stroke-dasharray="70 70"/>
<rect x="13210" y="10550" width="890" height="100" fill="#EAD9BC" stroke="none" stroke-width="0" rx="0" opacity="1"/>
<path d="M 14100 10650 L 14100 11540" stroke="#33302C" stroke-width="30" fill="none"/>
<path d="M 13210 10650 A 890 890 0 0 0 14100 11540" stroke="#8C8378" stroke-width="16" fill="none" stroke-dasharray="70 70"/>
<rect x="9810" y="10550" width="890" height="100" fill="#EAD9BC" stroke="none" stroke-width="0" rx="0" opacity="1"/>
<path d="M 10700 10650 L 10700 11540" stroke="#33302C" stroke-width="30" fill="none"/>
<path d="M 9810 10650 A 890 890 0 0 0 10700 11540" stroke="#8C8378" stroke-width="16" fill="none" stroke-dasharray="70 70"/>
<rect x="10000" y="14300" width="900" height="250" fill="#D4C9B8" stroke="none" stroke-width="0" rx="0" opacity="1"/>
<path d="M 10900 14550 L 10900 15450" stroke="#33302C" stroke-width="30" fill="none"/>
<path d="M 10000 14550 A 900 900 0 0 0 10900 15450" stroke="#8C8378" stroke-width="16" fill="none" stroke-dasharray="70 70"/>
<rect x="14850" y="7850" width="1350" height="2900" fill="url(#parkett)" stroke="none" stroke-width="0" rx="0" opacity="1"/>
<rect x="15100" y="7850" width="1100" height="250" fill="#33302C" stroke="none" stroke-width="0" rx="0" opacity="1"/>
<rect x="15100" y="10500" width="1100" height="250" fill="#33302C" stroke="none" stroke-width="0" rx="0" opacity="1"/>
<rect x="15950" y="7850" width="250" height="2900" fill="#33302C" stroke="none" stroke-width="0" rx="0" opacity="1"/>
<rect x="15250" y="8200" width="800" height="2200" fill="#F6F2EA" stroke="#8C8378" stroke-width="22" rx="0" opacity="1"/>
<line x1="15250" y1="8444.444444444445" x2="16050" y2="8444.444444444445" stroke="#8C8378" stroke-width="16"/>
<line x1="15250" y1="8688.888888888889" x2="16050" y2="8688.888888888889" stroke="#8C8378" stroke-width="16"/>
<line x1="15250" y1="8933.333333333334" x2="16050" y2="8933.333333333334" stroke="#8C8378" stroke-width="16"/>
<line x1="15250" y1="9177.777777777777" x2="16050" y2="9177.777777777777" stroke="#8C8378" stroke-width="16"/>
<line x1="15250" y1="9422.222222222223" x2="16050" y2="9422.222222222223" stroke="#8C8378" stroke-width="16"/>
<line x1="15250" y1="9666.666666666666" x2="16050" y2="9666.666666666666" stroke="#8C8378" stroke-width="16"/>
<line x1="15250" y1="9911.111111111111" x2="16050" y2="9911.111111111111" stroke="#8C8378" stroke-width="16"/>
<line x1="15250" y1="10155.555555555555" x2="16050" y2="10155.555555555555" stroke="#8C8378" stroke-width="16"/>
<line x1="15650.0" y1="8400" x2="15650.0" y2="10140" stroke="#6b6257" stroke-width="34"/>
<path d="M 15520.0 9940 L 15650.0 10140 L 15780.0 9940" fill="none" stroke="#6b6257" stroke-width="34"/>
<text x="15700" y="7600" font-size="170" fill="#6b6257" font-weight="500" text-anchor="middle" font-family="Poppins, Segoe UI, sans-serif">NED</text>
<rect x="14850" y="8650" width="250" height="1400" fill="url(#parkett)" stroke="none" stroke-width="0" rx="0" opacity="1"/>
<rect x="14850" y="3100" width="250" height="1300" fill="#FDFBF7" stroke="none" stroke-width="0" rx="0" opacity="1"/>
<line x1="14884" y1="3100" x2="14884" y2="4400" stroke="#33302C" stroke-width="28"/>
<line x1="15066" y1="3100" x2="15066" y2="4400" stroke="#33302C" stroke-width="28"/>
<line x1="14975.0" y1="3100" x2="14975.0" y2="4400" stroke="#33302C" stroke-width="20"/>
<line x1="14850" y1="3100" x2="15100" y2="3100" stroke="#33302C" stroke-width="28"/>
<line x1="14850" y1="4400" x2="15100" y2="4400" stroke="#33302C" stroke-width="28"/>
<rect x="14850" y="6200" width="250" height="1200" fill="#FDFBF7" stroke="none" stroke-width="0" rx="0" opacity="1"/>
<line x1="14884" y1="6200" x2="14884" y2="7400" stroke="#33302C" stroke-width="28"/>
<line x1="15066" y1="6200" x2="15066" y2="7400" stroke="#33302C" stroke-width="28"/>
<line x1="14975.0" y1="6200" x2="14975.0" y2="7400" stroke="#33302C" stroke-width="20"/>
<line x1="14850" y1="6200" x2="15100" y2="6200" stroke="#33302C" stroke-width="28"/>
<line x1="14850" y1="7400" x2="15100" y2="7400" stroke="#33302C" stroke-width="28"/>
<rect x="14850" y="11900" width="250" height="1400" fill="#FDFBF7" stroke="none" stroke-width="0" rx="0" opacity="1"/>
<line x1="14884" y1="11900" x2="14884" y2="13300" stroke="#33302C" stroke-width="28"/>
<line x1="15066" y1="11900" x2="15066" y2="13300" stroke="#33302C" stroke-width="28"/>
<line x1="14975.0" y1="11900" x2="14975.0" y2="13300" stroke="#33302C" stroke-width="20"/>
<line x1="14850" y1="11900" x2="15100" y2="11900" stroke="#33302C" stroke-width="28"/>
<line x1="14850" y1="13300" x2="15100" y2="13300" stroke="#33302C" stroke-width="28"/>
<rect x="12600" y="14300" width="1500" height="250" fill="#FDFBF7" stroke="none" stroke-width="0" rx="0" opacity="1"/>
<line x1="12600" y1="14334" x2="14100" y2="14334" stroke="#33302C" stroke-width="28"/>
<line x1="12600" y1="14516" x2="14100" y2="14516" stroke="#33302C" stroke-width="28"/>
<line x1="12600" y1="14425.0" x2="14100" y2="14425.0" stroke="#33302C" stroke-width="20"/>
<line x1="12600" y1="14300" x2="12600" y2="14550" stroke="#33302C" stroke-width="28"/>
<line x1="14100" y1="14300" x2="14100" y2="14550" stroke="#33302C" stroke-width="28"/>
<rect x="7900" y="14300" width="1200" height="250" fill="#FDFBF7" stroke="none" stroke-width="0" rx="0" opacity="1"/>
<line x1="7900" y1="14334" x2="9100" y2="14334" stroke="#33302C" stroke-width="28"/>
<line x1="7900" y1="14516" x2="9100" y2="14516" stroke="#33302C" stroke-width="28"/>
<line x1="7900" y1="14425.0" x2="9100" y2="14425.0" stroke="#33302C" stroke-width="20"/>
<line x1="7900" y1="14300" x2="7900" y2="14550" stroke="#33302C" stroke-width="28"/>
<line x1="9100" y1="14300" x2="9100" y2="14550" stroke="#33302C" stroke-width="28"/>
<rect x="8000" y="700" width="1800" height="2100" fill="#FBF8F2" stroke="#8C8378" stroke-width="22" rx="60" opacity="1"/>
<line x1="8000" y1="840" x2="9800" y2="840" stroke="#8C8378" stroke-width="20"/>
<rect x="8080" y="920" width="780.0" height="340" fill="#F3EDE2" stroke="#8C8378" stroke-width="18" rx="70" opacity="1"/>
<rect x="8940.0" y="920" width="780.0" height="340" fill="#F3EDE2" stroke="#8C8378" stroke-width="18" rx="70" opacity="1"/>
<rect x="8060" y="1380" width="1680" height="1340" fill="#F6F1E7" stroke="#8C8378" stroke-width="18" rx="50" opacity="1"/>
<line x1="8060" y1="1520" x2="9740" y2="1520" stroke="#8C8378" stroke-width="14"/>
<rect x="9930" y="730" width="420" height="420" fill="#FBF8F2" stroke="#8C8378" stroke-width="22" rx="40" opacity="1"/>
<rect x="7480" y="730" width="420" height="420" fill="#FBF8F2" stroke="#8C8378" stroke-width="22" rx="40" opacity="1"/>
<rect x="14250" y="2900" width="550" height="1800" fill="#FBF8F2" stroke="#8C8378" stroke-width="22" rx="20" opacity="1"/>
<line x1="14525.0" y1="2960" x2="14525.0" y2="4640" stroke="#8C8378" stroke-width="16" stroke-dasharray="180 90"/>
<line x1="14250" y1="3800.0" x2="14800" y2="3800.0" stroke="#8C8378" stroke-width="16"/>
<rect x="13050" y="2900" width="700" height="550" fill="#FBF8F2" stroke="#8C8378" stroke-width="22" rx="20" opacity="1"/>
<line x1="13110" y1="3175.0" x2="13690" y2="3175.0" stroke="#8C8378" stroke-width="16" stroke-dasharray="180 90"/>
<line x1="13400.0" y1="2900" x2="13400.0" y2="3450" stroke="#8C8378" stroke-width="16"/>
<rect x="13300" y="5600" width="1500" height="650" fill="#FBF8F2" stroke="#8C8378" stroke-width="22" rx="40" opacity="1"/>
<rect x="13800" y="6500" width="420" height="420" fill="#FBF8F2" stroke="#8C8378" stroke-width="22" rx="110" opacity="1"/>
<rect x="8700" y="5450" width="1700" height="750" fill="#FBF8F2" stroke="#8C8378" stroke-width="22" rx="60" opacity="1"/>
<rect x="8790" y="5540" width="1520" height="570" fill="#F1EFE9" stroke="#8C8378" stroke-width="16" rx="200" opacity="1"/>
<circle cx="9800" cy="7200" r="160" fill="#F6F3EC" stroke="#8C8378" stroke-width="20"/>
<circle cx="9800" cy="7200" r="72" fill="none" stroke="#8C8378" stroke-width="14"/>
<circle cx="8900" cy="7200" r="160" fill="#F6F3EC" stroke="#8C8378" stroke-width="20"/>
<circle cx="8900" cy="7200" r="72" fill="none" stroke="#8C8378" stroke-width="14"/>
<rect x="7780" y="8630" width="420" height="200" fill="#FBF8F2" stroke="#8C8378" stroke-width="20" rx="40" opacity="1"/>
<ellipse cx="7990" cy="8360" rx="185" ry="255" fill="#FBF8F2" stroke="#8C8378" stroke-width="20"/>
<rect x="9900" y="8900" width="2100" height="1400" fill="#E4D2AE" stroke="#CDB588" stroke-width="22" rx="120" opacity="0.85"/>
<rect x="13100" y="11300" width="1600" height="2000" fill="#FBF8F2" stroke="#8C8378" stroke-width="22" rx="60" opacity="1"/>
<line x1="13100" y1="11440" x2="14700" y2="11440" stroke="#8C8378" stroke-width="20"/>
<rect x="13180" y="11520" width="680.0" height="340" fill="#F3EDE2" stroke="#8C8378" stroke-width="18" rx="70" opacity="1"/>
<rect x="13940.0" y="11520" width="680.0" height="340" fill="#F3EDE2" stroke="#8C8378" stroke-width="18" rx="70" opacity="1"/>
<rect x="13160" y="11980" width="1480" height="1240" fill="#F6F1E7" stroke="#8C8378" stroke-width="18" rx="50" opacity="1"/>
<line x1="13160" y1="12120" x2="14640" y2="12120" stroke="#8C8378" stroke-width="14"/>
<rect x="12350" y="11300" width="550" height="1500" fill="#FBF8F2" stroke="#8C8378" stroke-width="22" rx="20" opacity="1"/>
<line x1="12625.0" y1="11360" x2="12625.0" y2="12740" stroke="#8C8378" stroke-width="16" stroke-dasharray="180 90"/>
<line x1="12350" y1="12050.0" x2="12900" y2="12050.0" stroke="#8C8378" stroke-width="16"/>
<rect x="9000" y="11400" width="1800" height="2100" fill="#FBF8F2" stroke="#8C8378" stroke-width="22" rx="60" opacity="1"/>
<line x1="9000" y1="11540" x2="10800" y2="11540" stroke="#8C8378" stroke-width="20"/>
<rect x="9080" y="11620" width="780.0" height="340" fill="#F3EDE2" stroke="#8C8378" stroke-width="18" rx="70" opacity="1"/>
<rect x="9940.0" y="11620" width="780.0" height="340" fill="#F3EDE2" stroke="#8C8378" stroke-width="18" rx="70" opacity="1"/>
<rect x="9060" y="12080" width="1680" height="1340" fill="#F6F1E7" stroke="#8C8378" stroke-width="18" rx="50" opacity="1"/>
<line x1="9060" y1="12220" x2="10740" y2="12220" stroke="#8C8378" stroke-width="14"/>
<rect x="8330" y="11430" width="420" height="420" fill="#FBF8F2" stroke="#8C8378" stroke-width="22" rx="40" opacity="1"/>
<text x="9100" y="3300" font-size="220" fill="#33302C" font-weight="600" text-anchor="middle" font-family="Poppins, Segoe UI, sans-serif">Master soverom</text>
<text x="9100" y="3560" font-size="175" fill="#6b6257" font-weight="400" text-anchor="middle" font-family="Poppins, Segoe UI, sans-serif">16.3 m²</text>
<text x="13950" y="3900" font-size="180" fill="#33302C" font-weight="600" text-anchor="middle" font-family="Poppins, Segoe UI, sans-serif">Walk in closet</text>
<text x="13950" y="4130" font-size="152" fill="#6b6257" font-weight="400" text-anchor="middle" font-family="Poppins, Segoe UI, sans-serif">5.4 m²</text>
<text x="13550" y="7250" font-size="190" fill="#33302C" font-weight="600" text-anchor="middle" font-family="Poppins, Segoe UI, sans-serif">Kontor/Sov</text>
<text x="13550" y="7490" font-size="158" fill="#6b6257" font-weight="400" text-anchor="middle" font-family="Poppins, Segoe UI, sans-serif">7,6 m²</text>
<text x="9150" y="8650" font-size="230" fill="#33302C" font-weight="600" text-anchor="middle" font-family="Poppins, Segoe UI, sans-serif">Bad</text>
<text x="9150" y="8910" font-size="182" fill="#6b6257" font-weight="400" text-anchor="middle" font-family="Poppins, Segoe UI, sans-serif">12,2 m²</text>
<text x="11750" y="10150" font-size="210" fill="#33302C" font-weight="600" text-anchor="middle" font-family="Poppins, Segoe UI, sans-serif">Gang</text>
<text x="11750" y="10390" font-size="172" fill="#6b6257" font-weight="400" text-anchor="middle" font-family="Poppins, Segoe UI, sans-serif">15.3 m²</text>
<text x="13650" y="13400" font-size="230" fill="#33302C" font-weight="600" text-anchor="middle" font-family="Poppins, Segoe UI, sans-serif">Soverom</text>
<text x="13650" y="13670" font-size="185" fill="#6b6257" font-weight="400" text-anchor="middle" font-family="Poppins, Segoe UI, sans-serif">11.9 m²</text>
<text x="9800" y="13400" font-size="230" fill="#33302C" font-weight="600" text-anchor="middle" font-family="Poppins, Segoe UI, sans-serif">Soverom</text>
<text x="9800" y="13670" font-size="185" fill="#6b6257" font-weight="400" text-anchor="middle" font-family="Poppins, Segoe UI, sans-serif">13.1 m²</text>
<rect x="7450" y="0" width="200" height="14550" fill="#33302C" stroke="none" stroke-width="0" rx="0" opacity="1"/>
<text x="1500" y="-900" font-size="230" fill="#C99C55" font-weight="600" text-anchor="middle" font-family="Poppins, Segoe UI, sans-serif">2. ETASJE · TO ENHETER</text>
<text x="-2300" y="18400" font-size="380" fill="#33302C" font-weight="600" text-anchor="start" font-family="Poppins, Segoe UI, sans-serif">Tiril — 2. etasje</text>
</svg>
